<?xml version="1.0" standalone="no"?>
<!DOCTYPE svg PUBLIC "-//W3C//DTD SVG 20010904//EN"
 "http://www.w3.org/TR/2001/REC-SVG-20010904/DTD/svg10.dtd">
<svg version="1.0" xmlns="http://www.w3.org/2000/svg"
 width="1536.000000pt" height="1024.000000pt" viewBox="0 0 1536.000000 1024.000000"
 preserveAspectRatio="xMidYMid meet">

<g transform="translate(0.000000,1024.000000) scale(0.100000,-0.100000)"
fill="#000000" stroke="none">
<path d="M0 5120 l0 -5120 7680 0 7680 0 0 5120 0 5120 -7680 0 -7680 0 0
-5120z m6771 1974 c37 -19 89 -81 89 -107 0 -21 -5 -22 -73 -24 -110 -2 -230
-13 -237 -21 -3 -4 -13 -8 -22 -10 -41 -7 -2 110 49 146 56 40 133 47 194 16z
m-1071 -142 c0 -18 -76 -96 -106 -108 -22 -9 -144 -18 -396 -29 -200 -8 -410
-17 -468 -19 -58 -3 -423 -8 -812 -12 l-708 -7 0 -614 0 -614 -82 -39 c-45
-21 -86 -36 -90 -34 -4 3 -8 305 -8 672 1 704 1 713 47 764 43 49 -6 47 1351
47 699 0 1272 -3 1272 -7z m684 -121 c-19 -17 -55 -34 -79 -37 -35 -4 -98 -47
-87 -59 4 -5 1 -5 -7 0 -8 4 -17 2 -22 -6 -6 -10 -8 -8 -7 7 2 17 24 31 103
67 110 51 129 56 99 28z m-9 -61 c-22 -10 -44 -18 -50 -18 -5 0 8 8 30 19 22
10 45 18 50 18 6 0 -8 -9 -30 -19z m-85 -35 c-14 -8 -29 -14 -35 -14 -5 0 1 6
15 14 14 8 30 14 35 14 6 0 -1 -6 -15 -14z m-50 -19 c0 -2 -7 -7 -16 -10 -8
-3 -12 -2 -9 4 6 10 25 14 25 6z m-921 -161 c-36 -20 -45 -45 -16 -45 12 0
-50 -24 -138 -54 -173 -58 -468 -172 -534 -205 -22 -12 -41 -19 -41 -17 0 9
287 155 405 206 124 54 322 129 340 129 6 0 -2 -6 -16 -14z m512 -59 c-32 -6
-56 -17 -58 -26 -4 -13 -3 -13 6 0 7 10 11 11 11 3 0 -7 10 -13 22 -13 21 0
21 0 2 -15 -14 -11 -15 -14 -3 -9 10 3 20 1 24 -5 3 -6 11 -11 16 -11 6 0 8 3
6 8 -3 4 25 8 61 9 l67 1 -90 -19 c-255 -53 -689 -206 -937 -330 -97 -49 -127
-60 -95 -36 15 10 9 12 -40 14 -36 2 -51 -1 -39 -6 17 -6 17 -8 4 -14 -10 -3
-19 0 -22 9 -7 17 -37 19 -33 2 1 -7 7 -16 12 -20 6 -4 0 -8 -11 -8 -12 0 -27
-7 -34 -15 -8 -10 -21 -13 -33 -9 -14 4 -17 3 -12 -6 6 -9 3 -9 -14 -1 -15 9
-26 9 -42 1 -15 -9 -24 -8 -37 2 -11 9 -14 10 -8 1 5 -9 1 -13 -13 -13 -26 0
-56 -41 -38 -52 6 -4 7 -8 2 -8 -6 0 -17 6 -24 13 -11 10 -13 10 -7 0 4 -7 2
-13 -4 -13 -18 0 -40 -27 -40 -49 0 -11 -5 -23 -10 -26 -6 -4 -8 -10 -6 -14 3
-3 -4 -7 -15 -7 -10 0 -19 4 -19 9 0 5 -7 1 -16 -7 -8 -9 -20 -13 -26 -10 -6
4 -8 2 -4 -4 3 -6 2 -13 -3 -17 -12 -7 -3 -35 11 -35 5 0 6 5 3 10 -3 6 2 18
11 28 17 16 18 16 11 0 -3 -10 -2 -18 2 -18 5 0 11 7 15 15 3 8 10 15 16 15 6
0 1 -10 -12 -23 -28 -28 -118 -87 -100 -65 10 13 10 17 -3 22 -8 3 -15 1 -15
-5 0 -6 -5 -7 -10 -4 -6 4 -7 12 -4 18 4 7 3 9 -1 4 -5 -4 -16 0 -26 9 -17 15
-18 15 -14 -6 3 -18 2 -20 -10 -10 -10 9 -19 8 -38 -4 -13 -9 -27 -13 -32 -9
-4 5 -4 -2 -1 -14 8 -25 -3 -30 -23 -10 -10 10 -11 9 -7 -3 7 -18 -10 -48 -21
-37 -4 5 -1 12 7 17 12 8 12 10 1 10 -7 0 -30 -17 -50 -38 -23 -23 -46 -38
-59 -37 -12 1 -19 -2 -16 -6 6 -11 -34 -31 -46 -24 -6 3 -10 2 -10 -4 0 -6 -7
-8 -16 -4 -9 3 -27 -6 -46 -23 -17 -16 -28 -23 -23 -15 5 9 0 8 -18 -3 -20
-13 -26 -14 -30 -4 -3 8 -6 6 -6 -5 -1 -10 -5 -16 -11 -12 -9 6 -143 -58 -209
-100 -20 -12 -119 -65 -221 -118 -231 -120 -364 -161 -525 -161 -114 0 -159
16 -213 78 -79 90 -65 255 34 405 41 62 154 194 161 188 2 -3 -10 -25 -27 -50
-54 -81 -81 -152 -87 -230 -4 -64 -2 -76 18 -106 39 -56 90 -76 189 -75 169 1
282 46 983 393 302 150 585 288 630 308 45 19 118 51 162 70 272 119 528 214
735 272 125 36 344 85 415 94 63 8 78 4 26 -7z m-1091 -486 c8 -5 12 -11 10
-14 -3 -2 -14 2 -24 10 -22 15 -10 19 14 4z m1205 -13 c82 -37 124 -104 125
-197 0 -68 -40 -264 -70 -345 -45 -120 -162 -205 -305 -221 -30 -4 -55 -10
-55 -15 0 -4 24 -36 53 -71 44 -53 197 -242 230 -285 7 -10 -28 -13 -172 -13
l-181 0 -142 190 -142 190 -127 0 c-123 0 -127 -1 -132 -22 -3 -13 -20 -98
-38 -190 l-33 -168 -148 0 c-81 0 -148 3 -148 8 0 8 43 236 142 753 l63 327
80 41 80 40 440 -2 c399 -2 444 -4 480 -20z m1415 13 c0 -8 -25 -127 -45 -217
l-5 -22 -385 -3 c-378 -3 -385 -3 -406 -24 -25 -26 -42 -101 -27 -127 15 -28
39 -34 299 -67 274 -35 335 -48 388 -83 53 -35 75 -86 74 -172 0 -81 -33 -211
-68 -271 -35 -60 -104 -118 -171 -145 -59 -23 -63 -24 -511 -27 -426 -3 -453
-2 -453 14 0 10 10 66 22 126 l21 107 398 3 397 3 25 23 c29 27 44 100 28 131
-12 21 -54 30 -281 56 -251 29 -340 44 -378 64 -46 24 -100 82 -107 116 -3 14
-7 36 -10 49 -8 40 13 165 41 243 28 78 85 152 138 180 91 48 126 52 584 52
285 1 432 -2 432 -9z m1266 -17 c-20 -107 -40 -193 -47 -204 -6 -10 -47 -13
-178 -12 -119 1 -173 -2 -179 -10 -6 -7 -14 -32 -20 -57 -8 -36 -10 -40 -12
-17 -1 15 -3 32 -4 39 0 6 -7 13 -15 16 -8 3 -11 0 -7 -7 5 -7 -7 -11 -36 -12
-24 -1 -46 -1 -50 0 -5 0 -8 -3 -8 -9 0 -5 -20 -10 -44 -10 -39 0 -45 3 -56
30 -11 26 -33 43 -28 23 0 -5 -2 -15 -5 -23 -3 -8 -8 -24 -11 -35 -3 -11 -3
-1 -1 23 l5 42 -42 1 c-48 0 -102 17 -60 18 39 2 24 16 -20 19 -24 2 -47 7
-52 12 -13 13 -49 13 -63 -1 -9 -9 -29 -16 -58 -18 -5 -1 -4 -5 4 -10 9 -6 -1
-10 -31 -12 l-44 -4 17 85 c9 47 20 102 23 123 l7 37 510 0 511 0 -6 -27z
m1051 0 c-4 -16 -14 -70 -23 -120 l-17 -93 -313 0 -313 0 -7 -37 c-14 -83 -32
-148 -33 -121 -1 15 -5 29 -11 33 -5 3 -7 13 -4 23 5 13 4 14 -4 3 -7 -10 -14
-10 -30 -2 -11 6 -46 11 -76 11 -31 0 -56 5 -56 10 0 6 -4 10 -10 10 -5 0 -21
12 -35 26 l-27 26 23 129 22 129 460 0 459 0 -5 -27z m1173 17 c0 -9 -25 -129
-45 -218 l-5 -22 -319 1 c-294 1 -322 0 -357 -17 -47 -23 -73 -58 -91 -121
l-13 -48 5 41 c5 41 4 42 -28 48 -93 17 -132 12 -192 -28 -22 -15 -26 -16 -17
-4 10 13 10 18 1 24 -8 4 -9 3 -5 -4 4 -7 3 -12 -3 -12 -5 0 -12 6 -14 13 -3
6 -4 -4 -1 -23 3 -27 2 -31 -5 -15 -9 19 -10 19 -10 1 -1 -11 -4 -17 -7 -13
-7 7 23 145 37 166 9 14 10 14 5 -1 -3 -10 -1 -18 4 -18 10 0 14 18 12 50 -2
41 73 123 148 161 25 13 70 29 100 35 71 16 800 19 800 4z m446 -7 c-2 -10
-21 -104 -42 -210 -20 -106 -41 -190 -45 -188 -4 3 -5 14 -2 25 4 14 0 20 -11
20 -9 0 -16 4 -16 9 0 12 -59 22 -141 24 -48 1 -65 5 -62 14 3 7 8 11 12 8 4
-2 8 2 8 10 0 10 -4 12 -12 5 -7 -5 -15 -6 -20 -2 -4 4 -6 -7 -3 -25 2 -18 1
-30 -3 -27 -4 2 -10 -4 -12 -13 -2 -10 -3 -7 -2 7 3 35 55 332 60 348 3 9 43
12 150 12 135 0 146 -1 141 -17z m808 0 c-2 -10 -24 -121 -49 -248 -49 -250
-57 -280 -48 -192 4 35 2 57 -4 57 -6 0 -22 11 -36 24 -18 16 -42 25 -84 30
-32 3 -64 7 -70 8 -7 1 -13 8 -13 15 0 8 -4 11 -10 8 -6 -4 -10 5 -10 20 0 14
4 24 9 21 5 -4 7 3 4 14 -3 11 -7 20 -9 20 -1 0 -8 -27 -15 -60 -6 -33 -14
-59 -16 -57 -3 4 6 59 49 300 l10 57 148 0 c136 0 148 -1 144 -17z m-7523 -43
c5 0 9 -5 9 -12 0 -6 -8 -3 -20 7 -11 10 -16 23 -12 29 4 7 8 5 10 -6 2 -10 8
-18 13 -18z m49 -35 c0 -2 -10 -9 -22 -15 -22 -11 -22 -10 -4 4 21 17 26 19
26 11z m-110 -55 c12 6 23 10 26 8 2 -2 -18 -14 -44 -26 -26 -13 -39 -16 -30
-9 14 11 15 16 5 27 -10 12 -9 12 5 1 13 -9 22 -10 38 -1z m3450 -155 c0 -5
-5 -3 -10 5 -8 12 -10 12 -10 1 0 -8 -2 -12 -5 -9 -3 3 -2 13 1 22 5 14 9 15
15 4 5 -7 9 -17 9 -23z m754 -2 c-11 -45 -23 -71 -23 -52 -2 30 11 79 20 79 5
0 6 -12 3 -27z m-4566 -65 c-27 -18 -68 -38 -68 -34 0 3 14 13 30 21 17 9 28
20 25 25 -3 6 1 7 10 3 13 -5 14 -8 3 -15z m4029 -20 c-3 -8 -6 -5 -6 6 -1 11
2 17 5 13 3 -3 4 -12 1 -19z m3560 0 c-3 -8 -6 -5 -6 6 -1 11 2 17 5 13 3 -3
4 -12 1 -19z m-7742 -19 c11 -16 1 -19 -13 -3 -7 8 -8 14 -3 14 5 0 13 -5 16
-11z m6932 -11 c-3 -8 -6 -5 -6 6 -1 11 2 17 5 13 3 -3 4 -12 1 -19z m-6857 5
c0 -1 -8 -7 -18 -12 -13 -7 -19 -6 -19 2 0 7 9 13 19 13 10 0 18 -1 18 -3z
m4097 -30 c-3 -10 -5 -4 -5 12 0 17 2 24 5 18 2 -7 2 -21 0 -30z m1560 -5 c-3
-7 -5 -2 -5 12 0 14 2 19 5 13 2 -7 2 -19 0 -25z m-1050 -10 c-3 -8 -6 -5 -6
6 -1 11 2 17 5 13 3 -3 4 -12 1 -19z m1328 -28 c-4 -23 -9 -39 -11 -37 -3 2
-2 23 2 46 4 23 9 40 11 37 3 -3 2 -23 -2 -46z m912 28 c-3 -8 -6 -5 -6 6 -1
11 2 17 5 13 3 -3 4 -12 1 -19z m-1438 -32 c-1 -17 -2 -17 -6 -3 -2 9 -11 17
-18 17 -8 0 -16 4 -19 9 -3 4 6 6 19 3 18 -3 25 -10 24 -26z m1864 27 c-23 -2
-64 -2 -90 0 -26 2 -7 3 42 3 50 0 71 -1 48 -3z m289 0 c-40 -2 -103 -2 -140
0 -37 2 -4 3 73 3 77 0 107 -2 67 -3z m-3495 -145 c-3 -8 -6 -5 -6 6 -1 11 2
17 5 13 3 -3 4 -12 1 -19z m-3387 -718 c839 -3 1526 -6 1528 -8 6 -4 -21 -48
-46 -74 -50 -54 -65 -56 -727 -62 -335 -4 -639 -9 -675 -12 -250 -19 -489 -26
-1013 -31 -541 -5 -602 -4 -641 11 -49 19 -108 71 -133 119 -20 39 -32 212
-15 229 6 6 51 28 99 48 l88 36 5 -125 5 -126 1525 -5z m2056 -112 c3 -4 4
-19 0 -33 -6 -25 -8 -25 -104 -25 -53 0 -103 -4 -111 -9 -30 -19 -2 -38 73
-50 94 -15 130 -41 128 -91 -1 -45 -18 -75 -51 -90 -30 -15 -194 -25 -246 -16
-33 7 -36 10 -33 38 l3 31 106 -2 c86 -2 108 1 119 14 20 24 4 33 -84 50 -101
19 -130 43 -123 98 6 46 29 74 71 87 34 10 241 9 252 -2z m345 7 c3 -2 -4 -55
-14 -116 -19 -109 -19 -113 -2 -126 27 -19 99 -16 124 5 17 13 27 43 43 130
l21 112 43 0 c41 0 44 -2 43 -27 -1 -60 -37 -216 -56 -241 -32 -44 -79 -62
-161 -62 -113 0 -162 29 -162 97 0 15 8 74 17 131 l17 102 42 0 c22 0 43 -2
45 -5z m772 -6 c51 -14 71 -47 64 -105 -10 -91 -58 -122 -188 -123 -82 -1 -89
-6 -89 -57 0 -22 -4 -24 -51 -24 -48 0 -51 1 -46 23 3 12 15 78 27 147 11 69
23 131 25 138 6 15 202 17 258 1z m591 -3 c52 -22 76 -60 76 -122 0 -127 -73
-193 -213 -194 -114 0 -177 50 -177 142 0 79 33 134 105 171 38 20 163 22 209
3z m621 0 c44 -19 59 -48 51 -101 -8 -50 -36 -84 -77 -92 -16 -3 -29 -8 -29
-10 0 -3 18 -25 40 -50 22 -25 40 -49 40 -52 0 -3 -24 -5 -52 -5 -51 2 -54 3
-93 53 -33 42 -45 51 -72 51 -29 0 -33 -3 -38 -37 -12 -71 -14 -73 -55 -73
-21 0 -41 3 -43 8 -3 5 28 194 53 320 0 1 54 2 120 2 81 0 132 -5 155 -14z
m608 6 c3 -4 3 -19 0 -34 -5 -25 -9 -27 -66 -30 l-61 -3 -21 -125 -21 -125
-42 1 c-23 0 -44 3 -46 5 -2 2 5 55 16 117 11 62 18 115 15 118 -3 3 -30 8
-61 11 -54 6 -55 7 -49 32 3 14 8 29 10 34 5 9 320 9 326 -1z m529 3 c2 -3 3
-18 0 -35 l-4 -30 -104 0 c-99 0 -105 -1 -113 -22 -5 -13 -7 -26 -4 -30 2 -5
42 -8 89 -8 88 0 90 -1 78 -47 -6 -22 -12 -23 -94 -23 -85 0 -88 -1 -92 -25
-3 -13 -3 -27 0 -30 3 -3 50 -5 104 -5 l98 0 0 -29 c0 -28 -1 -28 -77 -35
-111 -9 -221 -7 -228 4 -5 7 37 265 51 308 2 9 41 12 147 12 79 0 146 -2 149
-5z m-5137 -228 l7 -103 237 -43 c130 -23 245 -42 255 -41 59 1 -17 -16 -211
-46 l-218 -34 -502 0 c-448 0 -516 2 -636 20 -152 22 -309 49 -313 53 -2 1 56
13 129 26 202 36 368 69 373 74 3 2 8 40 12 83 l7 79 55 3 c88 5 679 29 742
31 l56 1 7 -103z"/>
<path d="M4305 5760 c-3 -5 -2 -10 4 -10 5 0 13 5 16 10 3 6 2 10 -4 10 -5 0
-13 -4 -16 -10z"/>
<path d="M5354 5783 l-220 -3 -29 -143 c-15 -78 -30 -152 -33 -164 l-4 -23
278 0 c313 0 331 3 366 71 22 43 43 166 34 202 -15 60 -47 65 -392 60z"/>
<path d="M9180 5800 c0 -5 12 -10 26 -10 14 0 23 4 19 10 -3 6 -15 10 -26 10
-10 0 -19 -4 -19 -10z"/>
<path d="M9500 5800 c-18 -6 -5 -8 44 -9 38 -1 67 1 65 4 -9 9 -85 12 -109 5z"/>
<path d="M9253 5793 c9 -2 23 -2 30 0 6 3 -1 5 -18 5 -16 0 -22 -2 -12 -5z"/>
<path d="M9810 5821 c0 -6 4 -13 10 -16 6 -3 7 1 4 9 -7 18 -14 21 -14 7z"/>
<path d="M11976 5663 c-3 -3 4 -14 16 -25 28 -24 36 -16 10 10 -11 11 -23 18
-26 15z"/>
<path d="M7757 4513 c-3 -5 -8 -27 -12 -50 l-7 -43 62 0 c79 0 100 11 100 54
0 26 -5 35 -22 40 -32 8 -116 7 -121 -1z"/>
<path d="M8339 4491 c-38 -38 -44 -108 -12 -143 25 -28 113 -25 140 5 47 52
57 113 23 147 -15 15 -33 20 -71 20 -43 0 -55 -5 -80 -29z"/>
<path d="M8988 4512 c-39 -3 -48 -7 -48 -22 0 -10 -3 -26 -6 -35 -6 -14 3 -16
72 -13 75 3 79 4 88 30 15 43 2 47 -106 40z"/>
</g>
</svg>
